<?xml version="1.0" standalone="no"?>
<!DOCTYPE svg PUBLIC "-//W3C//DTD SVG 20010904//EN"
 "http://www.w3.org/TR/2001/REC-SVG-20010904/DTD/svg10.dtd">
<svg version="1.0" xmlns="http://www.w3.org/2000/svg"
 width="401.000000pt" height="125.000000pt" viewBox="0 0 401.000000 125.000000"
 preserveAspectRatio="xMidYMid meet">

<g transform="translate(0.000000,125.000000) scale(0.100000,-0.100000)"
fill="#000000" stroke="none">
<path d="M0 995 l0 -255 255 0 c163 0 255 -4 255 -10 0 -6 -92 -10 -255 -10
-203 0 -255 -3 -255 -13 0 -7 24 -21 52 -32 29 -10 65 -28 81 -39 33 -24 69
-83 69 -112 1 -29 28 -34 199 -34 81 0 140 -4 144 -10 4 -6 -24 -10 -77 -11
-46 -1 -123 -4 -172 -8 l-90 -6 -12 -47 c-12 -47 -33 -78 -53 -78 -5 0 -16 -9
-24 -20 -8 -12 -36 -25 -66 -33 l-51 -12 0 -132 0 -133 2005 0 2005 0 0 233 0
232 -42 0 c-24 0 -603 2 -1287 3 -684 1 -1242 5 -1239 8 3 3 388 5 854 4 467
0 1044 2 1282 6 386 6 432 9 432 23 0 13 -12 16 -60 16 -35 0 -64 5 -68 11 -4
7 -23 18 -42 26 -36 15 -79 80 -82 125 -2 18 -10 21 -76 27 -40 3 -604 6
-1253 6 -649 0 -1178 4 -1175 9 3 4 538 9 1188 10 651 1 1213 4 1251 7 61 6
67 9 67 29 0 42 48 113 86 125 18 6 34 16 34 21 0 5 29 9 65 9 l65 0 0 160 0
160 -2005 0 -2005 0 0 -255z m1163 128 c-7 -2 -21 -2 -30 0 -10 3 -4 5 12 5
17 0 24 -2 18 -5z m384 1 c-3 -3 -12 -4 -19 -1 -8 3 -5 6 6 6 11 1 17 -2 13
-5z m-430 -380 c-3 -3 -12 -4 -19 -1 -8 3 -5 6 6 6 11 1 17 -2 13 -5z m-235
-15 c6 -4 -53 -8 -131 -8 -92 -1 -140 2 -136 8 6 11 249 11 267 0z m292 2 c3
-4 -6 -6 -19 -3 -14 2 -25 6 -25 8 0 8 39 4 44 -5z m-404 -251 c0 -6 -35 -10
-86 -10 -54 0 -83 4 -79 10 3 6 42 10 86 10 46 0 79 -4 79 -10z m300 0 c0 -6
-47 -10 -120 -10 -73 0 -120 4 -120 10 0 6 47 10 120 10 73 0 120 -4 120 -10z
m155 0 c4 -6 -12 -10 -40 -10 -28 0 -44 4 -40 10 3 6 21 10 40 10 19 0 37 -4
40 -10z"/>
</g>
</svg>
